<?xml version="1.0" encoding="utf-8"?>
<!-- Generator: Adobe Illustrator 27.5.0, SVG Export Plug-In . SVG Version: 6.00 Build 0)  -->
<svg version="1.1" id="Layer_2" xmlns="http://www.w3.org/2000/svg" xmlns:xlink="http://www.w3.org/1999/xlink" x="0px" y="0px"
	 viewBox="0 0 318.794 245.894" style="enable-background:new 0 0 318.794 245.894;" xml:space="preserve">
<g>
	<g>
		<rect x="13.702" y="77.416" style="fill:#91BC44;" width="291.5" height="151.709"/>
		<path style="fill:#794421;" d="M305.202,229.6h-291.5c-0.263,0-0.475-0.212-0.475-0.475V77.416c0-0.262,0.212-0.475,0.475-0.475
			h291.5c0.263,0,0.475,0.213,0.475,0.475v151.709C305.677,229.387,305.465,229.6,305.202,229.6z M14.177,228.65h290.55V77.891
			H14.177V228.65z"/>
	</g>
	<path style="opacity:0.2;fill:#757575;" d="M13.702,77.416v151.709h291.5V77.416H13.702z M277.281,206.044H41.623V97.599h235.658
		V206.044z"/>
	<g>
		<polygon style="fill:#C6E895;" points="250.986,11.335 67.919,11.335 13.702,77.416 305.202,77.416 		"/>
		<path style="fill:#794421;" d="M305.202,77.891h-291.5c-0.184,0-0.351-0.106-0.43-0.272c-0.078-0.166-0.054-0.363,0.062-0.505
			l54.217-66.081c0.09-0.109,0.225-0.173,0.367-0.173h183.067c0.142,0,0.277,0.064,0.367,0.173l54.216,66.081
			c0.116,0.142,0.141,0.339,0.062,0.505C305.553,77.785,305.386,77.891,305.202,77.891z M14.706,76.941h289.492L250.761,11.81
			H68.143L14.706,76.941z"/>
	</g>
	<g>
		<path style="fill:#6BAA29;" d="M71.235,216.915c-0.262,0-0.475-0.212-0.475-0.475V87.606c0-0.263,0.213-0.475,0.475-0.475
			c0.263,0,0.475,0.212,0.475,0.475V216.44C71.711,216.702,71.498,216.915,71.235,216.915z"/>
		<path style="fill:#6BAA29;" d="M107.693,216.915c-0.263,0-0.475-0.212-0.475-0.475V87.606c0-0.263,0.212-0.475,0.475-0.475
			c0.262,0,0.475,0.212,0.475,0.475V216.44C108.168,216.702,107.955,216.915,107.693,216.915z"/>
		<path style="fill:#6BAA29;" d="M143.476,216.915c-0.263,0-0.475-0.212-0.475-0.475V87.606c0-0.263,0.212-0.475,0.475-0.475
			c0.262,0,0.475,0.212,0.475,0.475V216.44C143.951,216.702,143.738,216.915,143.476,216.915z"/>
		<path style="fill:#6BAA29;" d="M175.319,216.915c-0.263,0-0.475-0.212-0.475-0.475V87.606c0-0.263,0.212-0.475,0.475-0.475
			c0.262,0,0.475,0.212,0.475,0.475V216.44C175.794,216.702,175.581,216.915,175.319,216.915z"/>
		<path style="fill:#6BAA29;" d="M211.102,216.915c-0.262,0-0.475-0.212-0.475-0.475V87.606c0-0.263,0.212-0.475,0.475-0.475
			c0.263,0,0.475,0.212,0.475,0.475V216.44C211.577,216.702,211.365,216.915,211.102,216.915z"/>
		<path style="fill:#6BAA29;" d="M247.559,216.915c-0.262,0-0.475-0.212-0.475-0.475V87.606c0-0.263,0.212-0.475,0.475-0.475
			c0.263,0,0.475,0.212,0.475,0.475V216.44C248.034,216.702,247.822,216.915,247.559,216.915z"/>
	</g>
	<g>
		<path style="fill:#6BAA29;" d="M71.235,77.453c-0.073,0-0.148-0.017-0.217-0.053c-0.233-0.12-0.325-0.406-0.205-0.639
			l34.208-66.473c0.12-0.235,0.407-0.326,0.64-0.205c0.233,0.12,0.325,0.406,0.205,0.639L71.658,77.195
			C71.574,77.359,71.408,77.453,71.235,77.453z"/>
		<path style="fill:#6BAA29;" d="M107.693,77.453c-0.046,0-0.091-0.007-0.137-0.02c-0.251-0.076-0.393-0.34-0.317-0.592
			l20.062-66.473c0.075-0.251,0.34-0.394,0.592-0.317c0.251,0.076,0.393,0.34,0.317,0.592l-20.062,66.473
			C108.086,77.321,107.897,77.453,107.693,77.453z"/>
		<path style="fill:#6BAA29;" d="M143.476,77.453c-0.015,0-0.03-0.001-0.045-0.002c-0.261-0.024-0.453-0.256-0.429-0.517
			l6.178-66.473c0.025-0.262,0.257-0.45,0.517-0.429c0.261,0.024,0.453,0.256,0.429,0.517l-6.178,66.473
			C143.926,77.269,143.719,77.453,143.476,77.453z"/>
		<path style="fill:#6BAA29;" d="M175.318,77.453c-0.243,0-0.449-0.185-0.473-0.431l-6.178-66.473
			c-0.024-0.261,0.168-0.493,0.429-0.517c0.261-0.02,0.493,0.168,0.517,0.429l6.178,66.473c0.024,0.261-0.168,0.493-0.429,0.517
			C175.348,77.452,175.333,77.453,175.318,77.453z"/>
		<path style="fill:#6BAA29;" d="M211.102,77.453c-0.204,0-0.393-0.133-0.454-0.338l-20.062-66.473
			c-0.076-0.251,0.066-0.516,0.317-0.592c0.253-0.078,0.516,0.066,0.592,0.317l20.062,66.473c0.076,0.251-0.066,0.516-0.317,0.592
			C211.193,77.447,211.148,77.453,211.102,77.453z"/>
		<path style="fill:#6BAA29;" d="M247.56,77.453c-0.173,0-0.339-0.094-0.423-0.258l-34.209-66.473
			c-0.12-0.233-0.028-0.52,0.205-0.639c0.234-0.12,0.52-0.028,0.64,0.205l34.209,66.473c0.12,0.233,0.028,0.52-0.205,0.639
			C247.708,77.436,247.633,77.453,247.56,77.453z"/>
	</g>
	<path style="opacity:0.2;fill:#757575;" d="M245.494,16.495H72.841L33.711,56.541h250.914L245.494,16.495z M78.603,24.004h161.13
		l22.422,25.028H56.181L78.603,24.004z"/>
	<g>
		<g style="opacity:0.2;">
			
				<rect x="12.963" y="142.085" transform="matrix(0.8906 -0.4547 0.4547 0.8906 -52.8221 91.5502)" style="fill:#757575;" width="301.904" height="27.007"/>
		</g>
		<g>
			<g>
				
					<rect x="8.445" y="138.088" transform="matrix(0.8906 -0.4547 0.4547 0.8906 -51.4988 89.0588)" style="fill:#9F6636;" width="301.905" height="27.007"/>
				<path style="fill:#794421;" d="M31.094,232.734c-0.049,0-0.099-0.007-0.146-0.023c-0.12-0.039-0.219-0.123-0.277-0.236
					l-12.28-24.053c-0.119-0.234-0.027-0.52,0.207-0.639L287.484,70.502c0.234-0.119,0.52-0.026,0.639,0.207l12.281,24.053
					c0.057,0.112,0.068,0.243,0.029,0.363c-0.039,0.12-0.123,0.219-0.236,0.276L31.31,232.682
					C31.242,232.716,31.168,232.734,31.094,232.734z M19.453,208.412l11.848,23.207L299.342,94.771l-11.849-23.207L19.453,208.412z"
					/>
			</g>
		</g>
		
			<rect x="12.963" y="156.873" transform="matrix(0.8906 -0.4547 0.4547 0.8906 -55.0285 92.081)" style="opacity:0.2;fill:#757575;" width="301.904" height="7.136"/>
		
			<rect x="3.618" y="139.332" transform="matrix(0.8906 -0.4547 0.4547 0.8906 -48.0746 85.9133)" style="opacity:0.3;fill:#FFFFFF;" width="301.904" height="7.136"/>
		<g>
			<g>
				<rect x="8.445" y="63.912" style="fill:#9F6636;" width="27.007" height="175.359"/>
				<path style="fill:#794421;" d="M35.452,239.746H8.445c-0.263,0-0.475-0.212-0.475-0.475V63.912c0-0.263,0.212-0.475,0.475-0.475
					h27.007c0.263,0,0.475,0.212,0.475,0.475v175.359C35.927,239.534,35.715,239.746,35.452,239.746z M8.92,238.796h26.057V64.387
					H8.92V238.796z"/>
			</g>
		</g>
		<rect x="8.445" y="206.044" style="opacity:0.2;fill:#757575;" width="27.007" height="33.227"/>
		<g>
			<rect x="29.046" y="63.912" style="opacity:0.2;fill:#757575;" width="6.406" height="175.359"/>
			<rect x="8.445" y="63.912" style="opacity:0.3;fill:#FFFFFF;" width="6.406" height="175.359"/>
		</g>
		<g>
			<g>
				<rect x="283.342" y="63.912" style="fill:#9F6636;" width="27.007" height="175.359"/>
				<path style="fill:#794421;" d="M310.349,239.746h-27.007c-0.263,0-0.475-0.212-0.475-0.475V63.912
					c0-0.263,0.212-0.475,0.475-0.475h27.007c0.263,0,0.475,0.212,0.475,0.475v175.359
					C310.824,239.534,310.612,239.746,310.349,239.746z M283.818,238.796h26.057V64.387h-26.057V238.796z"/>
			</g>
		</g>
		<g>
			<rect x="303.944" y="63.912" style="opacity:0.2;fill:#757575;" width="6.406" height="175.359"/>
			<rect x="283.342" y="63.912" style="opacity:0.3;fill:#FFFFFF;" width="6.406" height="175.359"/>
		</g>
		<g>
			<g>
				<rect x="8.445" y="63.912" style="fill:#9F6636;" width="301.905" height="27.007"/>
				<path style="fill:#794421;" d="M310.349,91.394H8.445c-0.263,0-0.475-0.213-0.475-0.475V63.912c0-0.263,0.212-0.475,0.475-0.475
					h301.904c0.263,0,0.475,0.212,0.475,0.475v27.007C310.824,91.182,310.612,91.394,310.349,91.394z M8.92,90.444h300.954V64.387
					H8.92V90.444z"/>
			</g>
			<g>
				<path style="opacity:0.5;fill:#626262;" d="M24.318,72.524c-3.198,0-5.8,2.603-5.8,5.8s2.602,5.799,5.8,5.799
					c3.198,0,5.8-2.601,5.8-5.799S27.517,72.524,24.318,72.524z"/>
				<g>
					<path style="fill:#626262;" d="M28.171,77.416c0,2.629-2.131,4.761-4.76,4.761s-4.76-2.131-4.76-4.761
						c0-2.629,2.131-4.761,4.76-4.761S28.171,74.787,28.171,77.416z"/>
					<path style="fill:#4A4A4A;" d="M23.411,83.052c-3.107,0-5.636-2.528-5.636-5.636c0-3.107,2.529-5.635,5.636-5.635
						s5.635,2.528,5.635,5.635C29.046,80.524,26.518,83.052,23.411,83.052z M23.411,73.531c-2.142,0-3.886,1.743-3.886,3.885
						c0,2.143,1.743,3.886,3.886,3.886s3.885-1.743,3.885-3.886C27.296,75.274,25.553,73.531,23.411,73.531z"/>
				</g>
				<g>
					<path style="fill:#4A4A4A;" d="M23.41,74.921c0.341,0.831,0.42,1.663,0.437,2.494c-0.016,0.831-0.094,1.663-0.437,2.494
						c-0.343-0.832-0.422-1.663-0.437-2.494C22.991,76.584,23.07,75.753,23.41,74.921z"/>
					<path style="fill:#4A4A4A;" d="M25.905,77.416c-0.831,0.34-1.663,0.42-2.494,0.437c-0.831-0.016-1.663-0.094-2.494-0.437
						c0.832-0.343,1.663-0.422,2.494-0.437C24.242,76.996,25.073,77.075,25.905,77.416z"/>
				</g>
			</g>
			<g>
				<path style="opacity:0.5;fill:#626262;" d="M300.358,72.524c-3.198,0-5.8,2.603-5.8,5.8s2.602,5.799,5.8,5.799
					c3.199,0,5.801-2.601,5.801-5.799S303.557,72.524,300.358,72.524z"/>
				<g>
					<path style="fill:#626262;" d="M304.211,77.416c0,2.629-2.131,4.761-4.761,4.761c-2.629,0-4.76-2.131-4.76-4.761
						c0-2.629,2.131-4.761,4.76-4.761C302.08,72.655,304.211,74.787,304.211,77.416z"/>
					<path style="fill:#4A4A4A;" d="M299.451,83.052c-3.107,0-5.636-2.528-5.636-5.636c0-3.107,2.529-5.635,5.636-5.635
						c3.107,0,5.636,2.528,5.636,5.635C305.086,80.524,302.558,83.052,299.451,83.052z M299.451,73.531
						c-2.142,0-3.886,1.743-3.886,3.885c0,2.143,1.743,3.886,3.886,3.886c2.142,0,3.885-1.743,3.885-3.886
						C303.336,75.274,301.593,73.531,299.451,73.531z"/>
				</g>
				<g>
					<path style="fill:#4A4A4A;" d="M299.45,74.921c0.341,0.831,0.42,1.663,0.437,2.494c-0.016,0.831-0.094,1.663-0.437,2.494
						c-0.343-0.832-0.422-1.663-0.437-2.494C299.031,76.584,299.11,75.753,299.45,74.921z"/>
					<path style="fill:#4A4A4A;" d="M301.945,77.416c-0.831,0.34-1.663,0.42-2.494,0.437c-0.831-0.016-1.663-0.094-2.494-0.437
						c0.831-0.343,1.663-0.422,2.494-0.437C300.282,76.996,301.113,77.075,301.945,77.416z"/>
				</g>
			</g>
		</g>
		<g>
			<g>
				<rect x="8.445" y="212.264" style="fill:#9F6636;" width="301.905" height="27.007"/>
				<path style="fill:#794421;" d="M310.349,239.746H8.445c-0.263,0-0.475-0.212-0.475-0.475v-27.007
					c0-0.263,0.212-0.475,0.475-0.475h301.904c0.263,0,0.475,0.212,0.475,0.475v27.007
					C310.824,239.534,310.612,239.746,310.349,239.746z M8.92,238.796h300.954v-26.057H8.92V238.796z"/>
			</g>
			<g>
				<path style="opacity:0.5;fill:#626262;" d="M24.318,220.876c-3.198,0-5.8,2.603-5.8,5.801s2.602,5.799,5.8,5.799
					c3.198,0,5.8-2.601,5.8-5.799S27.517,220.876,24.318,220.876z"/>
				<g>
					<circle style="fill:#626262;" cx="23.41" cy="225.768" r="4.76"/>
					<path style="fill:#4A4A4A;" d="M23.411,231.404c-3.107,0-5.636-2.528-5.636-5.636c0-3.107,2.529-5.635,5.636-5.635
						s5.635,2.528,5.635,5.635C29.046,228.876,26.518,231.404,23.411,231.404z M23.411,221.883c-2.142,0-3.886,1.743-3.886,3.885
						c0,2.143,1.743,3.886,3.886,3.886s3.885-1.743,3.885-3.886C27.296,223.626,25.553,221.883,23.411,221.883z"/>
				</g>
				<g>
					<path style="fill:#4A4A4A;" d="M23.41,223.273c0.341,0.831,0.42,1.663,0.437,2.494c-0.016,0.832-0.094,1.663-0.437,2.494
						c-0.343-0.831-0.422-1.663-0.437-2.494C22.991,224.936,23.07,224.105,23.41,223.273z"/>
					<path style="fill:#4A4A4A;" d="M25.905,225.768c-0.831,0.341-1.663,0.42-2.494,0.437c-0.831-0.016-1.663-0.094-2.494-0.437
						c0.832-0.343,1.663-0.422,2.494-0.437C24.242,225.348,25.073,225.427,25.905,225.768z"/>
				</g>
			</g>
			<g>
				<path style="opacity:0.5;fill:#626262;" d="M300.358,220.876c-3.198,0-5.8,2.603-5.8,5.801s2.602,5.799,5.8,5.799
					c3.199,0,5.801-2.601,5.801-5.799S303.557,220.876,300.358,220.876z"/>
				<g>
					<path style="fill:#626262;" d="M304.211,225.768c0,2.629-2.131,4.761-4.761,4.761c-2.629,0-4.76-2.131-4.76-4.761
						c0-2.629,2.131-4.76,4.76-4.76C302.08,221.007,304.211,223.138,304.211,225.768z"/>
					<path style="fill:#4A4A4A;" d="M299.451,231.404c-3.107,0-5.636-2.528-5.636-5.636c0-3.107,2.529-5.635,5.636-5.635
						c3.107,0,5.636,2.528,5.636,5.635C305.086,228.876,302.558,231.404,299.451,231.404z M299.451,221.883
						c-2.142,0-3.886,1.743-3.886,3.885c0,2.143,1.743,3.886,3.886,3.886c2.142,0,3.885-1.743,3.885-3.886
						C303.336,223.626,301.593,221.883,299.451,221.883z"/>
				</g>
				<g>
					<path style="fill:#4A4A4A;" d="M299.45,223.273c0.341,0.831,0.42,1.663,0.437,2.494c-0.016,0.832-0.094,1.663-0.437,2.494
						c-0.343-0.831-0.422-1.663-0.437-2.494C299.031,224.936,299.11,224.105,299.45,223.273z"/>
					<path style="fill:#4A4A4A;" d="M301.945,225.768c-0.831,0.341-1.663,0.42-2.494,0.437c-0.831-0.016-1.663-0.094-2.494-0.437
						c0.831-0.343,1.663-0.422,2.494-0.437C300.282,225.348,301.113,225.427,301.945,225.768z"/>
				</g>
			</g>
		</g>
		<g>
			<rect x="8.446" y="84.513" style="opacity:0.2;fill:#757575;" width="301.904" height="6.406"/>
			<rect x="8.446" y="63.912" style="opacity:0.3;fill:#FFFFFF;" width="301.904" height="6.406"/>
		</g>
		<g>
			<rect x="8.446" y="232.865" style="opacity:0.2;fill:#757575;" width="301.904" height="6.406"/>
			<rect x="8.446" y="212.264" style="opacity:0.3;fill:#FFFFFF;" width="301.904" height="6.406"/>
		</g>
	</g>
	<g>
		<g>
			<g>
				<polygon style="fill:#85502A;" points="43.411,53.931 74.636,19.461 74.636,13.873 38.349,53.931 				"/>
				<path style="fill:#794421;" d="M43.411,54.406h-5.062c-0.188,0-0.358-0.11-0.434-0.282c-0.076-0.172-0.044-0.373,0.082-0.512
					l36.287-40.058c0.132-0.145,0.341-0.194,0.523-0.124c0.183,0.071,0.304,0.247,0.304,0.443v5.588
					c0,0.118-0.044,0.232-0.123,0.319L43.763,54.25C43.673,54.35,43.545,54.406,43.411,54.406z M39.42,53.456h3.78l30.961-34.178
					v-4.173L39.42,53.456z"/>
			</g>
			<g>
				<polygon style="fill:#85502A;" points="243.755,19.461 275.422,53.931 280.556,53.931 243.755,13.873 				"/>
				<path style="fill:#794421;" d="M280.556,54.406h-5.134c-0.133,0-0.26-0.056-0.35-0.154l-31.667-34.47
					c-0.081-0.087-0.125-0.202-0.125-0.321v-5.588c0-0.196,0.12-0.371,0.302-0.443c0.182-0.071,0.39-0.024,0.522,0.122
					l36.801,40.058c0.128,0.138,0.161,0.34,0.085,0.512C280.915,54.295,280.744,54.406,280.556,54.406z M275.631,53.456h3.844
					L244.23,15.093v4.184L275.631,53.456z"/>
			</g>
			<g>
				<rect x="74.636" y="13.873" style="fill:#824C27;" width="169.119" height="5.588"/>
				<path style="fill:#794421;" d="M243.755,19.936H74.636c-0.263,0-0.475-0.212-0.475-0.475v-5.588
					c0-0.262,0.212-0.475,0.475-0.475h169.119c0.262,0,0.475,0.213,0.475,0.475v5.588C244.23,19.724,244.017,19.936,243.755,19.936z
					 M75.111,18.986H243.28v-4.638H75.111V18.986z"/>
			</g>
		</g>
		<g>
			<g>
				<polygon style="fill:#9F6636;" points="244.214,13.873 255.128,6.623 63.667,6.623 74.581,13.873 				"/>
				<path style="fill:#794421;" d="M244.213,14.349H74.581c-0.094,0-0.185-0.028-0.263-0.08l-10.914-7.25
					c-0.174-0.115-0.252-0.332-0.192-0.532c0.06-0.2,0.245-0.338,0.455-0.338h191.461c0.21,0,0.394,0.137,0.455,0.338
					c0.061,0.2-0.017,0.418-0.192,0.532l-10.914,7.25C244.398,14.321,244.307,14.349,244.213,14.349z M74.724,13.399H244.07
					l9.484-6.3H65.24L74.724,13.399z"/>
			</g>
			<polygon style="opacity:0.2;fill:#757575;" points="244.214,10.248 74.581,10.248 69.124,6.623 63.667,6.623 74.581,13.873 
				244.214,13.873 255.128,6.623 249.671,6.623 			"/>
			<g>
				<polygon style="fill:#9F6636;" points="244.214,13.873 280.5,53.931 310.349,63.912 255.128,6.623 				"/>
				<path style="fill:#794421;" d="M310.349,64.387c-0.05,0-0.101-0.008-0.151-0.024l-29.849-9.981
					c-0.077-0.026-0.147-0.071-0.201-0.132l-36.287-40.058c-0.093-0.103-0.136-0.24-0.119-0.378
					c0.017-0.137,0.093-0.261,0.208-0.337l10.914-7.25c0.19-0.129,0.445-0.101,0.605,0.066l55.222,57.289
					c0.152,0.157,0.177,0.398,0.06,0.583C310.662,64.306,310.509,64.387,310.349,64.387z M280.769,53.52l27.895,9.327L255.061,7.239
					l-10.124,6.725L280.769,53.52z"/>
			</g>
			<polygon style="opacity:0.2;fill:#757575;" points="287.857,52.587 251.57,12.529 257.249,8.824 255.128,6.623 244.214,13.873 
				280.5,53.931 310.349,63.912 306.159,59.564 			"/>
			<g>
				<polygon style="fill:#9F6636;" points="38.294,53.931 8.445,63.912 310.349,63.912 280.5,53.931 				"/>
				<path style="fill:#794421;" d="M310.349,64.387H8.445c-0.233,0-0.431-0.169-0.469-0.399c-0.037-0.23,0.097-0.453,0.318-0.527
					l29.849-9.98c0.049-0.016,0.1-0.024,0.151-0.024H280.5c0.051,0,0.102,0.008,0.151,0.024l29.849,9.98
					c0.221,0.074,0.355,0.297,0.318,0.527C310.781,64.218,310.582,64.387,310.349,64.387z M11.364,63.437h296.067l-27.007-9.031
					H38.371L11.364,63.437z"/>
			</g>
			<polygon style="opacity:0.2;fill:#757575;" points="38.294,57.134 280.5,57.134 300.771,63.912 310.349,63.912 280.5,53.931 
				38.294,53.931 8.445,63.912 18.023,63.912 			"/>
			<g>
				<polygon style="fill:#9F6636;" points="74.581,13.873 63.667,6.623 8.445,63.912 38.294,53.931 				"/>
				<path style="fill:#794421;" d="M8.445,64.387c-0.16,0-0.313-0.081-0.402-0.222c-0.117-0.185-0.092-0.426,0.06-0.583
					L63.325,6.294c0.159-0.167,0.414-0.195,0.605-0.066l10.914,7.25c0.115,0.076,0.191,0.2,0.208,0.337
					c0.017,0.137-0.026,0.275-0.119,0.378L38.646,54.25c-0.055,0.06-0.124,0.106-0.201,0.132L8.596,64.363
					C8.546,64.379,8.495,64.387,8.445,64.387z M63.734,7.239L10.131,62.848l27.895-9.327l35.833-39.557L63.734,7.239z"/>
			</g>
			<polygon style="opacity:0.2;fill:#757575;" points="63.667,6.623 61.917,8.439 68.075,12.529 31.788,52.587 13.452,58.718 
				8.445,63.912 38.294,53.931 74.581,13.873 			"/>
		</g>
	</g>
</g>
</svg>
